<?xml version="1.0" encoding="utf-8"?>
<!-- Generator: Adobe Illustrator 24.2.3, SVG Export Plug-In . SVG Version: 6.00 Build 0)  -->
<svg version="1.1" id="Layer_1" xmlns="http://www.w3.org/2000/svg" xmlns:xlink="http://www.w3.org/1999/xlink" x="0px" y="0px"
	 viewBox="0 0 192 192" style="enable-background:new 0 0 192 192;" xml:space="preserve">
<style type="text/css">
	.st0{enable-background:new    ;}
</style>
<g id="Layer_1_1_">
	<g id="Layer_2_1_">
		<path d="M126.2,51l-12.7,14.3l12.7,14.3v32.5c0,0.8-0.8,1.6-0.8,1.6c-3.2,2.4-9.5,0-12.7-4c-2.4-4-3.2-6.3-3.2-9.5V85.9
			c-6.3-7.1-11.9-13.5-18.2-19.8c0,0,0,0-0.8-0.8l0.8-0.8l18.2-19.8c0-4.8,0-9.5,0-14.3c0-2.4,0.8-5.5,3.2-9.5c4-4,10.3-6.3,12.7-4
			c0,0,0.8,0.8,0.8,1.6C126.2,17.7,126.2,51,126.2,51z"/>
		<path d="M76,114.5h-4c-4,0-6.4-3.2-6.4-6.4V22.5c0-3.2,3.2-6.4,6.4-6.4h4c4,0,6.4,3.2,6.4,6.4v85.6
			C83.2,112.1,79.2,114.5,76,114.5z"/>
	</g>
	<g class="st0">
		<path d="M41.6,145.7v9.6h3.2l8-9.6h9.6l-11.2,14.4l12.8,16h-9.6l-12.8-16l0,0v16h-8v-30.4H41.6z"/>
		<path d="M74.4,145.7v23.2h16.8v7.2H72.8c-4,0-5.6-2.4-5.6-6.4v-24H74.4z"/>
		<path d="M124.8,168.9c0,4.8-2.4,7.2-8,7.2h-13.6c-5.6,0-8-3.2-8-8.8v-12.8c0-5.6,2.4-8.8,7.2-8.8h14.4c5.6,0,8,2.4,8,7.2h-19.2
			c-1.6,0-3.2,0.8-3.2,2.4v10.4c0,1.6,0.8,2.4,3.2,2.4L124.8,168.9z"/>
		<path d="M136,145.7v9.6h3.2l8-9.6h9.6l-11.2,14.4l12.8,16h-9.6l-12.8-16l0,0v16h-8v-30.4H136z"/>
	</g>
</g>
</svg>
