<?xml version="1.0" encoding="utf-8"?>
<!-- Generator: Adobe Illustrator 24.2.3, SVG Export Plug-In . SVG Version: 6.00 Build 0)  -->
<svg version="1.1" id="Layer_1" xmlns="http://www.w3.org/2000/svg" xmlns:xlink="http://www.w3.org/1999/xlink" x="0px" y="0px"
	 viewBox="0 0 192 192" style="enable-background:new 0 0 192 192;" xml:space="preserve">
<style type="text/css">
	.st0{fill:none;stroke:#000000;stroke-width:12;stroke-linecap:round;stroke-linejoin:round;stroke-miterlimit:10;}
</style>
<g id="Layer_1_1_">
	<g id="Layer_2_1_">
		<path class="st0" d="M144.9,74.5L125.8,96l19.1,21.4v48.8c0,1.2-1.2,2.4-1.2,2.4c-4.8,3.6-14.3,0-19.1-6c-3.6-6-4.8-9.5-4.8-14.3
			V127c-9.5-10.7-17.9-20.3-27.4-29.8c0,0,0,0-1.2-1.2l1.2-1.2L119.8,65c0-7.1,0-14.3,0-21.4c0-3.6,1.2-8.3,4.8-14.3
			c6-6,15.5-9.5,19.1-6c0,0,1.2,1.2,1.2,2.4C144.9,24.5,144.9,74.5,144.9,74.5z"/>
		<path class="st0" d="M62.8,170.1h-6c-6,0-9.6-4.8-9.6-9.6v-129c0-4.8,4.8-9.6,9.6-9.6h6c6,0,9.6,4.8,9.6,9.6v128.9
			C73.6,166.4,67.6,170.1,62.8,170.1z"/>
	</g>
</g>
</svg>
